#!OML:ASF X:\für Bonn\!DataBase\2005_08_12_Daniel\c3d\Daniel.ASF
:FULLY-SPECIFIED
:DEGREES
48
root 13.8925 15.6092 14.1808 888.105 -44.2822 -182.419
lowerback 39.2704 3.73579 -1.40886
upperback 9.69416 1.11753 -4.6288
thorax -8.30224 -0.402519 -4.51121
lowerneck -1.65644 0.808452 -1.98168
upperneck 1.95933 1.1204 0.153261
head 0.858961 0.544921 0.387122
rclavicle 0 3.33958e-014
rhumerus -35.9347 -4.55872 -89.2198
rradius 67.6016
rwrist 10.5763
rhand -34.4859 8.62623
rfingers 7.12502
rthumb -7.64857 -21.2155
lclavicle 0 3.33958e-014
lhumerus -33.7651 21.9953 74.6049
lradius 70.4785
lwrist -25.2969
lhand -28.867 2.36648
lfingers 7.12502
lthumb -2.22323 32.3346
rfemur 14.3538 -1.71279 19.7921
rtibia 51.6755
rfoot -29.5798 9.18689
rtoes -4.93126
lfemur -34.8362 -0.515474 -21.2275
ltibia 43.7867
lfoot -7.32484 -3.60765
ltoes -7.73079
49
root 13.7866 15.5988 14.0784 888.676 -44.4114 -182.81
lowerback 39.3735 3.95727 -1.9342
upperback 9.60883 1.15496 -4.784
thorax -8.43467 -0.383612 -4.42208
lowerneck -1.82 0.72416 -2.08647
upperneck 2.01121 1.00876 0.466145
head 0.902864 0.492207 0.500816
rclavicle -3.97569e-015 -1.74931e-014
rhumerus -36.0038 -4.52385 -89.2572
rradius 67.7414
rwrist 10.6416
rhand -34.4981 8.55001
rfingers 7.12502
rthumb -7.66032 -21.2912
lclavicle -3.97569e-015 -1.74931e-014
lhumerus -33.6884 22.1753 74.4322
lradius 70.5767
lwrist -25.4861
lhand -28.8462 2.3739
lfingers 7.12502
lthumb -2.20312 32.3423
rfemur 14.5863 -1.63078 19.5472
rtibia 51.6268
rfoot -29.2735 8.97793
rtoes -4.92554
lfemur -35.3373 0.0739315 -21.7292
ltibia 44.7233
lfoot -6.68895 -4.2502
ltoes -7.88186
50
root 13.6803 15.5921 13.9755 889.278 -44.542 -183.23
lowerback 39.4692 4.19879 -2.51359
upperback 9.53076 1.19547 -4.91343
thorax -8.556 -0.363677 -4.27893
lowerneck -1.98982 0.646834 -2.15684
upperneck 2.04746 0.906503 0.721255
head 0.94377 0.444046 0.591377
rclavicle 6.36111e-015 2.38542e-014
rhumerus -36.061 -4.37483 -89.2412
rradius 67.8683
rwrist 10.5996
rhand -34.4986 8.5431
rfingers 7.12502
rthumb -7.66087 -21.2981
lclavicle 6.36111e-015 2.38542e-014
lhumerus -33.5651 22.3806 74.3013
lradius 70.6323
lwrist -25.7409
lhand -28.9016 2.44131
lfingers 7.12502
lthumb -2.25671 32.4091
rfemur 14.8456 -1.53144 19.2932
rtibia 51.4952
rfoot -28.9186 8.77448
rtoes -4.97221
lfemur -35.7934 0.640549 -22.2522
ltibia 45.5943
lfoot -6.10626 -4.86133
ltoes -7.92291
51
root 13.5738 15.5856 13.8715 889.856 -44.6697 -183.631
lowerback 39.5637 4.44293 -3.08571
upperback 9.44415 1.24121 -5.0381
thorax -8.68529 -0.340244 -4.13792
lowerneck -1.96328 0.566365 -2.13616
upperneck 1.97053 0.793567 0.939566
head 0.916824 0.391134 0.653305
rclavicle 7.07673e-014 6.52014e-014
rhumerus -36.1649 -4.17262 -89.2423
rradius 68.0138
rwrist 10.5285
rhand -34.5284 8.38879
rfingers 7.12502
rthumb -7.68964 -21.4514
lclavicle 7.07673e-014 6.52014e-014
lhumerus -33.4756 22.5866 74.1935
lradius 70.6738
lwrist -26.0379
lhand -29.0036 2.48163
lfingers 7.12502
lthumb -2.35514 32.4484
rfemur 15.1257 -1.42848 19.0738
rtibia 51.3341
rfoot -28.517 8.49993
rtoes -5.05775
lfemur -36.2066 1.19468 -22.7413
ltibia 46.4686
lfoot -5.63975 -5.50771
ltoes -7.85511
52
root 13.4668 15.5785 13.7682 890.456 -44.8342 -184.03
lowerback 39.6229 4.65113 -3.62449
upperback 9.37321 1.25554 -5.17041
thorax -8.78632 -0.330753 -4.00977
lowerneck -1.90655 0.492934 -2.12747
upperneck 1.86876 0.690066 1.1517
head 0.877159 0.342529 0.715269
rclavicle -4.6118e-014 3.33958e-014
rhumerus -36.2657 -3.91623 -89.264
rradius 68.1974
rwrist 10.3843
rhand -34.5307 8.1825
rfingers 7.12502
rthumb -7.69185 -21.6576
lclavicle -4.6118e-014 3.33958e-014
lhumerus -33.3919 22.848 74.0919
lradius 70.7247
lwrist -26.4032
lhand -29.0748 2.48642
lfingers 7.12502
lthumb -2.42396 32.4524
rfemur 15.3946 -1.3658 18.8486
rtibia 51.1475
rfoot -28.0562 8.27375
rtoes -5.083
lfemur -36.6376 1.67037 -23.2338
ltibia 47.353
lfoot -5.29829 -6.08687
ltoes -7.79722
53
root 13.3601 15.5733 13.6637 891.01 -44.9681 -184.39
lowerback 39.6375 4.86206 -4.10122
upperback 9.33484 1.29844 -5.29886
thorax -8.834 -0.309704 -3.92038
lowerneck -1.76872 0.404466 -2.25938
upperneck 1.71206 0.567008 1.46434
head 0.807478 0.283899 0.831417
rclavicle -5.56597e-014 8.74653e-014
rhumerus -36.3983 -3.64315 -89.2637
rradius 68.4519
rwrist 10.1771
rhand -34.5561 7.85684
rfingers 7.12502
rthumb -7.71631 -21.9824
lclavicle -5.56597e-014 8.74653e-014
lhumerus -33.1719 23.0592 74.048
lradius 70.6335
lwrist -26.7617
lhand -29.248 2.47952
lfingers 7.12502
lthumb -2.59118 32.4435
rfemur 15.697 -1.30862 18.6386
rtibia 50.9209
rfoot -27.5366 8.04925
rtoes -5.08347
lfemur -37.0312 2.1588 -23.6752
ltibia 48.2472
lfoot -5.11839 -6.68275
ltoes -7.65996
54
root 13.2529 15.5693 13.5601 891.485 -45.1149 -184.653
lowerback 39.6734 5.02802 -4.49581
upperback 9.27707 1.32225 -5.41212
thorax -8.91038 -0.295389 -3.85099
lowerneck -1.5279 0.324051 -2.44525
upperneck 1.51075 0.453939 1.795
head 0.707218 0.22924 0.962433
rclavicle -1.59028e-014 -1.17681e-013
rhumerus -36.5796 -3.30414 -89.233
rradius 68.6917
rwrist 9.85437
rhand -34.5291 7.62464
rfingers 7.12502
rthumb -7.69024 -22.2155
lclavicle -1.59028e-014 -1.17681e-013
lhumerus -32.9973 23.2692 74.021
lradius 70.5662
lwrist -27.113
lhand -29.3637 2.51955
lfingers 7.12502
lthumb -2.70292 32.4822
rfemur 16.0191 -1.30034 18.4946
rtibia 50.6567
rfoot -26.9787 7.80568
rtoes -5.27173
lfemur -37.4089 2.62363 -24.0419
ltibia 49.1435
lfoot -5.167 -7.33912
ltoes -7.72883
55
root 13.1465 15.5699 13.4571 891.918 -45.2744 -184.866
lowerback 39.7139 5.17322 -4.81288
upperback 9.24505 1.34376 -5.54521
thorax -8.95886 -0.284184 -3.84198
lowerneck -1.35711 0.239116 -2.60485
upperneck 1.33158 0.335642 2.1452
head 0.626501 0.171848 1.09662
rclavicle -3.81667e-014 1.59028e-015
rhumerus -36.6709 -3.12098 -89.2646
rradius 68.8466
rwrist 9.66793
rhand -34.491 7.3324
rfingers 7.12502
rthumb -7.65353 -22.5091
lclavicle -3.81667e-014 1.59028e-015
lhumerus -32.7529 23.4267 73.9861
lradius 70.4407
lwrist -27.433
lhand -29.5352 2.50805
lfingers 7.12502
lthumb -2.8686 32.4685
rfemur 16.3545 -1.27951 18.411
rtibia 50.3538
rfoot -26.3479 7.51382
rtoes -5.35649
lfemur -37.7584 3.09795 -24.3679
ltibia 50.0267
lfoot -5.42639 -8.0667
ltoes -8.09158
56
root 13.0403 15.5742 13.3539 892.315 -45.4375 -185.056
lowerback 39.8498 5.35078 -5.19034
upperback 9.12682 1.39354 -5.58613
thorax -9.13345 -0.253221 -3.71957
lowerneck -1.04434 0.143835 -2.8271
upperneck 1.14706 0.202125 2.45463
head 0.521283 0.104809 1.22924
rclavicle -6.67916e-014 -5.40694e-014
rhumerus -36.8528 -2.94742 -89.1783
rradius 68.9062
rwrist 9.51757
rhand -34.4433 7.05658
rfingers 7.12502
rthumb -7.60742 -22.7866
lclavicle -6.67916e-014 -5.40694e-014
lhumerus -32.6725 23.5855 74.0289
lradius 70.3566
lwrist -27.722
lhand -29.608 2.50579
lfingers 7.12502
lthumb -2.93884 32.4653
rfemur 16.7143 -1.278 18.3459
rtibia 50.0143
rfoot -25.6675 7.19442
rtoes -5.5308
lfemur -38.0618 3.60341 -24.6731
ltibia 50.8847
lfoot -5.77004 -8.8268
ltoes -8.37438
57
root 12.9335 15.582 13.2503 892.686 -45.6302 -185.233
lowerback 39.982 5.50874 -5.53223
upperback 9.01576 1.42967 -5.6409
thorax -9.29908 -0.228336 -3.62538
lowerneck -0.71739 0.0577026 -2.99676
upperneck 0.995702 0.0788665 2.75439
head 0.424072 0.0421766 1.35132
rclavicle -9.30312e-014 5.88403e-014
rhumerus -37.0177 -2.84769 -89.0823
rradius 68.9058
rwrist 9.42386
rhand -34.3668 6.91338
rfingers 7.12502
rthumb -7.53367 -22.9325
lclavicle -9.30312e-014 5.88403e-014
lhumerus -32.5847 23.6787 74.0588
lradius 70.265
lwrist -28.0338
lhand -29.6487 2.60635
lfingers 7.12502
lthumb -2.9782 32.5653
rfemur 17.0955 -1.29048 18.2943
rtibia 49.6642
rfoot -24.9364 6.8432
rtoes -5.60804
lfemur -38.3099 4.10341 -24.9696
ltibia 51.7009
lfoot -6.20484 -9.63351
ltoes -8.53828
